<svg width="40" height="40" viewBox="0 0 40 40" fill="none" xmlns="http://www.w3.org/2000/svg">
<defs>
  <linearGradient id="sGrad" x1="18" y1="7" x2="22" y2="34" gradientUnits="userSpaceOnUse">
    <stop offset="0%" stop-color="#4DE8F4"/>
    <stop offset="30%" stop-color="#3DAFE7"/>
    <stop offset="55%" stop-color="#5B7CF7"/>
    <stop offset="100%" stop-color="#9B4DCA"/>
  </linearGradient>
  <radialGradient id="bgGrad" cx="20" cy="18" r="22" gradientUnits="userSpaceOnUse">
    <stop offset="0%" stop-color="#1E2A4A"/>
    <stop offset="100%" stop-color="#0D0F1A"/>
  </radialGradient>
</defs>
<path opacity="0.95" d="M20.0557 39.9666C8.91365 39.9666 0 31.2241 0 20.2958C0 9.47687 8.91365 0.625 20.0557 0.625H32.6462C36.7688 0.625 40 3.90347 40 7.83763V20.2958C40 31.2241 31.0863 39.9666 20.0557 39.9666Z" fill="url(#bgGrad)"/>
<circle cx="26.2" cy="12.2" r="0.55" fill="#4DE8A0" opacity="0.85"/>
<circle cx="12.5" cy="16.5" r="0.3" fill="#AACCFF" opacity="0.4"/>
<circle cx="28.5" cy="27" r="0.25" fill="#AACCFF" opacity="0.3"/>
<circle cx="14.5" cy="29" r="0.3" fill="#AACCFF" opacity="0.3"/>
<path d="M15.56,6.56 C14.47,6.82 12.50,8.03 11.94,8.78 C11.79,8.96 11.52,9.33 11.34,9.58 C9.99,11.34 9.65,14.19 10.48,16.62 C10.89,17.78 12.30,19.52 13.34,20.13 C13.74,20.36 14.22,20.67 14.39,20.81 C14.70,21.07 16.65,22.05 17.69,22.47 C18.00,22.59 18.53,22.81 18.87,22.95 C19.22,23.09 19.80,23.33 20.18,23.48 C20.55,23.63 20.95,23.81 21.06,23.87 C21.18,23.94 21.63,24.18 22.06,24.39 C23.43,25.08 24.35,26.14 24.35,27.02 C24.35,27.82 23.54,28.80 22.91,28.79 C22.46,28.78 21.27,28.25 20.28,27.63 C19.91,27.39 19.40,27.06 19.13,26.92 C18.87,26.76 18.43,26.49 18.13,26.29 C17.37,25.81 16.25,25.26 15.51,25.01 C14.13,24.54 12.13,24.85 10.95,25.72 C9.66,26.67 9.46,26.84 8.99,27.39 C8.56,27.88 8.50,28.02 8.52,28.34 C8.55,28.69 8.56,28.70 8.97,28.68 C10.38,28.60 11.13,28.62 11.68,28.73 C12.53,28.92 14.28,29.87 15.78,30.95 C16.03,31.13 16.59,31.49 17.03,31.77 C19.43,33.24 20.66,33.63 22.60,33.52 C23.77,33.45 24.75,33.11 26.04,32.34 C26.59,32.01 28.00,30.69 28.00,30.51 C28.00,30.47 28.18,30.21 28.41,29.94 C28.65,29.65 28.85,29.28 28.88,29.07 C28.91,28.87 29.04,28.31 29.15,27.86 C29.30,27.29 29.35,26.83 29.32,26.50 C29.29,26.22 29.22,25.51 29.15,24.92 C29.05,23.77 28.90,23.39 28.08,22.01 C27.78,21.52 27.44,21.11 27.06,20.82 C26.75,20.58 26.25,20.16 25.95,19.90 C25.57,19.55 25.28,19.39 24.88,19.30 C24.57,19.22 23.71,18.86 22.95,18.49 C22.20,18.13 21.47,17.79 21.32,17.74 C19.76,17.28 16.50,15.57 15.84,14.87 C15.32,14.29 15.27,14.20 15.17,13.54 C15.02,12.43 15.40,11.80 16.50,11.38 C16.92,11.22 16.98,11.22 17.64,11.45 C18.47,11.72 20.23,12.62 21.27,13.32 C23.25,14.64 24.17,14.99 25.63,14.99 L26.72,14.99 L27.88,14.42 C28.91,13.90 29.12,13.74 30.07,12.77 C31.48,11.35 31.50,10.91 30.16,11.29 C28.36,11.80 26.91,11.31 23.66,9.07 C21.95,7.90 20.44,7.00 19.68,6.72 C19.01,6.47 16.32,6.37 15.56,6.56 Z" fill="url(#sGrad)"/>
</svg>